<!DOCTYPE svg PUBLIC "-//W3C//DTD SVG 1.1//EN" "http://www.w3.org/Graphics/SVG/1.1/DTD/svg11.dtd">
<!-- Uploaded to: SVG Repo, www.svgrepo.com, Transformed by: SVG Repo Mixer Tools -->
<svg fill="#000000" width="64px" height="64px" viewBox="0 0 24 24" xmlns="http://www.w3.org/2000/svg" transform="rotate(-45)matrix(1, 0, 0, -1, 0, 0)">
<g id="SVGRepo_bgCarrier" stroke-width="0"/>
<g id="SVGRepo_tracerCarrier" stroke-linecap="round" stroke-linejoin="round"/>
<g id="SVGRepo_iconCarrier">
<path d="M20.34,9.32l-14-7a3,3,0,0,0-4.08,3.9l2.4,5.37h0a1.06,1.06,0,0,1,0,.82l-2.4,5.37A3,3,0,0,0,5,22a3.14,3.14,0,0,0,1.35-.32l14-7a3,3,0,0,0,0-5.36Zm-.89,3.57-14,7a1,1,0,0,1-1.35-1.3l2.39-5.37A2,2,0,0,0,6.57,13h6.89a1,1,0,0,0,0-2H6.57a2,2,0,0,0-.08-.22L4.1,5.41a1,1,0,0,1,1.35-1.3l14,7a1,1,0,0,1,0,1.78Z"/>
</g>
</svg>